<?xml version="1.0" standalone="no"?>
<!DOCTYPE svg PUBLIC "-//W3C//DTD SVG 20010904//EN"
 "http://www.w3.org/TR/2001/REC-SVG-20010904/DTD/svg10.dtd">
<svg version="1.0" xmlns="http://www.w3.org/2000/svg"
 width="2048.000000pt" height="2048.000000pt" viewBox="0 0 2048.000000 2048.000000"
 preserveAspectRatio="xMidYMid meet">

<g transform="translate(0.000000,2048.000000) scale(0.100000,-0.100000)"
fill="#000000" stroke="none">
<path d="M10140 17971 c-118 -36 -217 -142 -274 -292 -39 -103 -50 -210 -43
-410 l7 -176 -133 -7 c-393 -21 -700 -85 -1032 -215 -308 -120 -647 -357 -871
-608 -148 -167 -309 -427 -374 -608 -87 -242 -120 -400 -129 -615 l-6 -155
-60 -39 c-108 -70 -289 -198 -364 -258 l-74 -58 -71 68 c-83 80 -116 99 -171
95 -35 -2 -45 3 -80 37 -31 30 -54 42 -102 53 -34 8 -67 18 -75 23 -96 57
-238 236 -433 544 -116 184 -179 266 -264 349 -172 169 -363 250 -523 224 -86
-15 -171 -57 -215 -107 -48 -55 -92 -152 -106 -230 -9 -56 -8 -75 10 -149 26
-103 42 -140 104 -232 86 -129 150 -189 419 -393 142 -108 318 -263 389 -342
86 -96 125 -157 151 -234 12 -36 30 -76 41 -90 13 -17 19 -40 19 -78 0 -63 29
-117 111 -204 l51 -53 -99 -123 c-132 -164 -195 -250 -290 -393 -352 -527
-619 -1116 -753 -1655 -64 -261 -123 -562 -148 -765 l-17 -140 -107 -1 -106 0
-54 -41 c-44 -33 -64 -41 -114 -46 -43 -5 -76 -16 -110 -37 -106 -65 -260 -64
-616 6 -313 61 -356 66 -518 67 -127 0 -169 -4 -230 -21 -121 -33 -205 -76
-270 -138 -163 -155 -165 -393 -4 -550 104 -102 256 -153 479 -161 150 -6 262
6 485 51 198 41 290 51 461 51 l166 0 54 -34 c36 -23 71 -36 104 -39 39 -4 59
-12 88 -39 53 -48 78 -56 191 -62 99 -6 100 -6 107 -34 7 -26 3 -31 -39 -60
-201 -139 -365 -325 -472 -536 -44 -88 -96 -250 -115 -356 -18 -107 -21 -299
-6 -411 25 -179 94 -357 205 -528 66 -102 126 -168 235 -259 105 -89 160 -126
262 -178 198 -99 369 -139 631 -146 l177 -5 72 -107 c64 -94 139 -194 270
-359 l42 -53 -65 -67 c-86 -89 -98 -108 -98 -162 0 -46 -7 -61 -67 -139 -18
-25 -36 -64 -43 -95 -9 -45 -21 -63 -88 -133 -73 -78 -149 -136 -513 -395
-154 -110 -246 -202 -335 -335 -92 -135 -108 -184 -109 -318 0 -118 13 -162
72 -248 90 -130 313 -175 490 -100 212 90 357 237 665 674 53 74 118 160 145
190 27 29 60 67 74 82 33 39 76 64 127 72 27 4 64 23 103 52 45 33 75 47 116
53 58 10 69 17 177 113 l65 59 98 -79 c239 -192 590 -426 817 -543 101 -53 97
-47 115 -185 32 -241 189 -563 407 -832 228 -280 580 -519 949 -641 194 -65
552 -132 701 -132 65 0 63 6 34 -155 -27 -147 -37 -371 -20 -472 40 -248 192
-434 375 -458 78 -10 188 17 254 62 144 100 233 309 233 548 0 76 -10 171 -32
305 -48 290 -46 270 -23 270 30 0 228 65 338 110 183 77 382 182 670 355 306
183 636 333 847 383 103 24 131 26 308 26 215 0 300 -12 462 -65 125 -40 254
-105 399 -200 158 -102 214 -112 278 -49 55 55 47 122 -26 221 -99 134 -270
262 -486 364 -235 111 -452 155 -759 155 -180 0 -319 -16 -500 -55 -192 -43
-276 -76 -933 -363 -250 -109 -491 -192 -559 -192 -17 0 -18 2 -4 18 36 39 67
150 77 271 l6 76 135 16 c308 39 681 113 905 180 729 219 1366 552 1908 996
l78 64 42 -37 c23 -21 57 -53 75 -71 43 -43 78 -60 140 -69 38 -5 66 -17 104
-45 29 -22 70 -44 93 -50 22 -5 53 -15 68 -21 41 -16 139 -127 262 -298 306
-425 391 -523 542 -623 137 -91 248 -124 378 -112 119 11 219 71 279 165 62
97 75 244 31 364 -65 181 -201 334 -469 531 -82 61 -203 150 -270 199 -66 49
-155 124 -196 165 -69 69 -77 81 -89 136 -14 66 -27 90 -75 141 -28 29 -34 46
-40 96 -7 70 -23 96 -101 162 -30 26 -55 54 -55 63 0 8 28 49 63 92 393 474
657 939 887 1561 65 176 119 352 169 558 60 244 95 442 137 780 l5 42 95 0
c105 0 141 11 196 59 28 24 45 31 79 31 33 0 59 10 113 42 68 42 72 43 172 46
122 5 237 -7 514 -53 279 -47 404 -59 540 -52 134 7 197 22 300 73 91 46 166
117 206 199 26 54 29 69 29 160 0 90 -3 106 -29 158 -41 83 -122 159 -220 207
-109 54 -207 73 -381 72 -144 -1 -163 -3 -595 -83 -139 -25 -204 -32 -315 -33
-147 -1 -159 2 -242 55 -18 11 -57 23 -87 26 -37 4 -63 13 -82 30 -50 43 -80
53 -184 59 -55 4 -103 11 -106 16 -3 4 -10 49 -17 99 l-11 90 100 97 c246 238
404 507 478 812 55 232 65 349 42 540 -36 311 -149 554 -351 756 -194 195
-455 322 -760 371 -78 12 -141 14 -290 9 -104 -3 -206 -9 -226 -12 -34 -6 -38
-3 -75 48 -21 29 -67 88 -102 132 -95 117 -94 115 -36 181 90 103 106 133 102
197 -3 52 0 60 28 90 20 21 39 58 53 103 36 120 151 253 370 429 64 51 134
106 156 122 111 80 239 190 316 271 143 151 218 328 205 487 -11 146 -87 259
-216 320 -58 28 -74 31 -155 30 -106 0 -181 -23 -288 -87 -145 -85 -278 -238
-497 -567 -141 -213 -202 -292 -292 -382 -70 -70 -84 -79 -149 -98 -51 -16
-83 -32 -114 -61 -33 -31 -50 -39 -79 -39 -59 0 -97 -22 -164 -95 -35 -38 -67
-65 -75 -62 -7 3 -60 40 -117 84 -122 91 -283 205 -355 249 -204 124 -254 154
-259 154 -4 0 -25 12 -49 27 -119 76 -559 276 -808 368 -107 39 -376 125 -442
141 -26 6 -26 7 30 40 58 34 74 49 145 133 l37 44 38 -20 c21 -10 74 -38 118
-60 209 -108 393 -126 587 -59 62 22 224 113 216 122 -2 2 -37 -8 -77 -22 -53
-19 -103 -27 -181 -31 -142 -8 -160 -1 -95 36 85 49 215 201 215 251 0 7 -29
-15 -65 -48 -103 -94 -235 -152 -346 -152 -60 0 -159 24 -252 62 -62 24 -77
34 -72 47 40 104 49 142 49 226 1 79 -2 97 -27 147 -53 108 -89 133 -417 285
-116 54 -178 96 -294 202 -44 40 -98 83 -121 97 -55 31 -162 57 -357 85 -86
12 -161 25 -167 29 -8 5 -7 48 5 156 23 212 23 361 0 459 -47 204 -150 336
-296 379 -56 17 -166 20 -210 7z m515 -1460 c3 -6 -4 -47 -16 -92 -24 -94 -21
-145 12 -172 19 -15 24 -16 36 -4 21 21 43 115 43 185 0 41 4 61 10 57 29 -18
110 -129 110 -150 0 -56 -110 -135 -187 -135 -61 0 -135 62 -159 133 -28 85 8
156 91 176 54 12 53 12 60 2z m-1136 -76 c-17 -39 -20 -58 -14 -104 18 -142
110 -222 271 -235 122 -10 211 -36 399 -119 232 -102 250 -107 405 -118 164
-11 222 -20 410 -64 312 -73 501 -72 698 3 31 12 52 16 52 9 0 -17 -74 -82
-126 -111 -159 -89 -312 -103 -690 -62 -221 24 -256 26 -435 17 -190 -8 -329
-3 -438 19 -109 21 -268 72 -330 106 -159 87 -248 171 -303 282 -28 56 -32 76
-31 136 1 96 31 171 95 241 28 31 52 54 54 52 3 -2 -5 -25 -17 -52z m-219
-388 c0 -7 19 -44 41 -83 46 -76 131 -169 197 -216 24 -16 42 -31 40 -33 -2
-2 -26 -7 -53 -10 -375 -49 -614 -206 -726 -477 -73 -176 -75 -405 -7 -594 85
-238 334 -517 599 -673 13 -8 53 -33 89 -55 36 -22 147 -79 248 -127 l182 -88
0 -38 c0 -84 -23 -281 -60 -513 -21 -135 -42 -279 -45 -321 l-7 -77 -67 31
c-288 134 -526 283 -826 517 -252 196 -511 507 -630 755 -73 153 -139 362
-159 505 -26 183 -3 437 55 624 125 402 433 726 796 836 147 44 333 65 333 37z
m713 -498 c140 -28 166 -30 332 -28 305 4 443 -1 633 -21 101 -11 239 -20 307
-20 125 0 164 -6 360 -56 341 -87 723 -235 1082 -420 351 -180 663 -388 1018
-676 177 -143 572 -557 739 -773 183 -237 273 -368 404 -587 118 -198 207
-370 266 -512 43 -102 42 -109 -24 -206 -37 -55 -60 -74 -60 -51 0 30 -240
518 -323 656 -244 407 -532 773 -858 1090 -150 147 -373 340 -456 395 -26 18
-59 43 -73 55 -43 39 -330 229 -440 292 -178 101 -368 197 -540 273 -91 39
-178 78 -195 85 -78 35 -291 110 -438 154 -456 138 -1151 233 -1572 216 -227
-9 -482 -31 -637 -55 -170 -26 -414 -74 -500 -99 -39 -11 -68 -15 -68 -10 0
20 50 95 91 138 23 24 65 54 93 67 67 30 270 79 416 98 63 9 126 17 140 20 73
11 165 3 303 -25z m287 -425 c48 -19 70 -55 70 -114 0 -75 -37 -117 -117 -134
-41 -9 -107 24 -128 64 -33 64 -10 155 46 183 43 21 78 21 129 1z m-2992 -527
l9 -58 -80 -62 c-44 -34 -126 -96 -182 -137 -154 -112 -338 -276 -546 -487
-325 -330 -519 -585 -774 -1017 -225 -382 -448 -923 -556 -1348 -120 -476
-172 -1085 -139 -1611 24 -378 116 -876 219 -1192 28 -86 29 -90 11 -93 -35
-6 -144 28 -162 49 -33 40 -112 318 -168 595 -16 77 -41 241 -56 365 -26 209
-28 250 -29 614 0 448 14 613 86 993 35 186 120 550 134 573 3 4 19 52 35 106
66 224 219 581 368 861 252 473 569 901 956 1288 247 246 408 380 716 597
l135 95 7 -37 c4 -20 11 -62 16 -94z m3447 -2 c225 -27 694 -131 876 -195 187
-65 228 -80 329 -120 58 -23 170 -75 250 -116 766 -387 1434 -1010 1838 -1715
128 -223 286 -562 280 -602 -3 -24 -9 -24 -142 -11 l-58 6 -25 57 c-168 381
-393 747 -646 1046 -86 103 -356 372 -467 466 -419 357 -884 624 -1385 795
-197 68 -517 143 -735 173 -518 72 -900 60 -1431 -45 -124 -24 -234 -44 -245
-44 -21 0 -154 128 -154 148 0 5 12 12 28 15 15 2 108 23 207 46 234 55 426
87 600 100 77 6 156 13 175 15 81 9 583 -4 705 -19z m-970 -620 c4 -11 35 -49
69 -83 l61 -64 -55 27 c-271 131 -540 287 -540 314 0 9 225 57 345 74 l90 13
11 -130 c6 -72 15 -140 19 -151z m1125 265 c313 -51 628 -138 852 -234 59 -25
110 -46 113 -46 14 0 350 -167 405 -202 206 -130 409 -268 457 -311 l22 -20
-81 -86 c-100 -106 -117 -142 -118 -239 l0 -72 -72 -75 -73 -74 -109 65 c-200
121 -581 303 -811 389 -153 57 -374 134 -520 181 -77 25 -196 65 -265 88
l-125 43 -3 99 -2 99 64 69 c73 77 76 85 78 244 l2 102 30 0 c17 0 87 -9 156
-20z m-3986 -494 c52 -30 71 -66 69 -123 -3 -77 -61 -133 -139 -133 -136 0
-169 199 -44 262 46 24 65 23 114 -6z m6783 -12 c36 -28 63 -71 63 -104 0 -35
-39 -100 -73 -120 -63 -39 -148 -15 -183 51 -23 45 -15 121 17 156 53 57 115
64 176 17z m-6024 -54 c26 -39 47 -74 47 -78 -1 -4 -29 -28 -64 -54 -176 -133
-502 -445 -660 -633 -239 -284 -445 -617 -610 -987 -88 -198 -112 -261 -170
-448 -114 -372 -186 -867 -186 -1276 0 -240 40 -568 109 -903 l19 -93 -71
-101 -71 -100 -14 39 c-60 169 -132 540 -151 774 -59 728 27 1368 266 1975
134 341 263 586 476 905 198 295 424 553 702 800 121 107 304 250 321 250 6 0
32 -32 57 -70z m447 -481 c65 -53 228 -169 237 -169 3 0 16 -8 27 -18 28 -25
190 -119 328 -192 188 -98 477 -217 793 -325 374 -128 353 -120 365 -150 16
-42 12 -59 -21 -80 -66 -44 -68 -53 -75 -363 l-7 -281 -89 -35 c-49 -20 -93
-36 -97 -36 -4 0 -92 86 -196 190 -209 210 -241 231 -314 212 -49 -12 -50 -12
-127 128 -96 175 -188 275 -401 436 -258 195 -431 335 -520 421 l-103 99 2 75
c1 92 -17 131 -97 209 -31 30 -66 68 -77 83 l-20 28 38 33 39 34 135 -132 c74
-72 155 -148 180 -167z m2672 -12 c297 -143 429 -225 733 -453 220 -165 320
-247 320 -264 0 -9 -34 -45 -75 -81 -100 -87 -154 -156 -235 -300 -87 -155
-98 -168 -119 -150 -24 20 -89 17 -136 -8 l-40 -21 -173 103 c-94 57 -233 138
-307 181 -74 42 -144 82 -155 89 -11 7 -21 12 -22 13 -2 0 8 33 21 72 70 205
78 366 32 682 -14 102 -29 196 -33 209 -3 14 -2 22 3 19 5 -3 89 -44 186 -91z
m4373 -326 c22 -10 55 -34 73 -55 31 -35 32 -40 32 -119 0 -133 -19 -164 -48
-77 -8 23 -41 90 -73 148 -33 58 -59 109 -59 114 0 13 32 9 75 -11z m-7955
-248 c65 -44 112 -56 178 -48 l56 7 105 -109 c58 -60 138 -152 176 -204 39
-51 104 -139 145 -194 167 -227 217 -290 279 -352 66 -66 87 -81 269 -193
l103 -64 -7 -66 c-7 -71 -6 -72 73 -160 13 -13 19 -27 15 -31 -4 -3 -45 -11
-92 -18 -248 -35 -488 -107 -755 -226 -77 -34 -345 -198 -455 -278 -81 -59
-89 -63 -185 -80 -101 -17 -335 -37 -390 -33 -16 2 -52 4 -80 5 -47 2 -52 5
-82 46 -18 24 -54 56 -79 71 -40 24 -59 27 -160 32 -135 6 -138 8 -123 107 63
413 190 818 373 1191 112 229 294 525 422 687 l46 59 61 -59 c34 -33 82 -73
107 -90z m8186 -117 c9 -83 -17 -209 -61 -297 -185 -375 -623 -607 -1105 -586
-157 7 -263 29 -410 85 -277 104 -456 220 -699 452 -35 33 -61 63 -58 66 3 4
32 -14 64 -38 322 -244 595 -380 893 -444 113 -24 344 -29 465 -10 320 49 611
238 766 496 65 110 92 210 110 405 2 26 29 -74 35 -129z m-1618 -264 c84 -152
162 -312 162 -331 0 -6 -4 -11 -10 -11 -24 0 -232 85 -309 126 -106 56 -267
163 -305 203 l-28 30 183 91 184 91 21 -26 c12 -15 57 -93 102 -173z m2429
-84 c-21 -403 -210 -775 -546 -1077 -160 -143 -462 -325 -656 -394 -275 -98
-646 -157 -895 -142 -253 15 -551 85 -863 205 -168 64 -683 361 -842 486 -22
17 -114 82 -205 144 -91 62 -169 117 -173 121 -5 4 40 35 100 70 106 62 212
154 291 253 l31 40 63 -60 c167 -159 444 -384 626 -508 142 -98 234 -148 372
-206 405 -171 780 -207 1219 -120 274 54 478 132 704 268 212 128 369 270 516
466 122 164 179 280 221 456 28 120 28 120 36 120 4 0 4 -55 1 -122z m-5374
-145 c207 -120 307 -184 307 -195 0 -4 -56 -65 -124 -135 l-124 -127 -78 31
c-44 17 -89 34 -101 38 -23 6 -23 7 -23 236 0 126 3 229 6 229 3 0 65 -35 137
-77z m-323 -462 c266 -71 477 -189 655 -366 193 -193 305 -403 366 -692 28
-130 30 -358 5 -488 -34 -174 -130 -391 -237 -535 -195 -263 -493 -453 -826
-526 -98 -21 -369 -24 -458 -5 -272 59 -534 197 -705 370 -98 98 -211 252
-264 359 -50 99 -102 257 -121 366 -19 112 -19 314 0 432 52 319 248 638 515
838 185 138 421 239 635 270 17 2 104 3 195 1 125 -3 183 -9 240 -24z m1658
-306 c94 -66 172 -123 172 -126 1 -17 -725 -354 -741 -344 -3 3 -18 30 -33 61
l-27 56 174 177 c171 174 230 243 248 289 11 28 -8 38 207 -113z m436 -293
c217 -137 252 -156 427 -242 90 -44 153 -78 139 -76 -147 30 -220 39 -376 43
-198 6 -286 -5 -411 -53 -83 -31 -95 -30 -116 6 -10 16 -32 39 -50 52 -30 22
-44 23 -227 28 -126 3 -188 8 -175 14 11 5 52 22 92 37 77 30 389 186 488 243
33 19 62 35 64 35 2 1 68 -39 145 -87z m3001 -174 c20 -218 23 -324 20 -588
-7 -452 -36 -715 -125 -1113 -166 -748 -465 -1400 -920 -2006 -704 -939 -1687
-1636 -2768 -1962 -544 -164 -995 -229 -1597 -230 -328 0 -544 18 -845 72
-131 23 -366 75 -379 84 -12 7 -60 132 -63 165 -2 14 2 24 8 23 6 -1 105 -23
219 -48 370 -82 631 -112 1035 -119 449 -8 789 31 1270 145 267 63 531 149
759 246 139 59 440 202 516 245 220 125 507 311 630 408 578 456 880 781 1261
1357 156 235 193 300 305 528 137 282 160 338 249 604 73 219 165 597 205 836
58 353 81 874 54 1192 l-11 128 28 20 c15 11 50 37 78 58 28 20 53 37 57 37 4
0 10 -37 14 -82z m-975 -575 c0 -409 -36 -698 -131 -1058 -75 -282 -147 -479
-279 -761 -318 -678 -917 -1354 -1595 -1800 -580 -381 -1300 -631 -1985 -690
-315 -27 -718 -16 -990 27 -205 32 -541 106 -558 124 -13 12 130 162 152 158
6 0 90 -17 186 -37 372 -75 803 -103 1130 -72 481 46 785 116 1245 288 58 22
395 187 452 221 32 19 81 47 108 63 102 56 335 214 439 298 166 133 406 348
456 407 25 30 81 92 125 139 217 229 459 575 625 893 264 506 441 1281 429
1874 -2 69 1 127 6 132 10 10 105 28 158 30 l27 1 0 -237z m-9120 159 c39 -28
62 -80 56 -127 -5 -48 -59 -101 -112 -111 -65 -12 -136 31 -153 92 -10 39 5
104 32 132 41 44 126 51 177 14z m9598 2 c32 -21 62 -73 62 -107 0 -75 -76
-145 -144 -134 -90 15 -130 60 -123 140 9 102 119 156 205 101z m-1196 -485
c67 -70 95 -81 243 -94 106 -8 129 -13 127 -25 -2 -8 -14 -76 -27 -150 -70
-394 -145 -661 -262 -930 -48 -111 -85 -184 -196 -390 -50 -95 -263 -401 -373
-539 -2 -2 -29 20 -61 48 -32 29 -85 70 -118 92 -57 39 -61 40 -135 38 -64 -3
-81 0 -106 18 -68 48 -242 258 -424 508 -243 336 -301 393 -516 505 -126 66
-125 65 -112 115 22 82 8 104 -213 329 l-200 205 31 73 c17 40 35 83 40 96 10
23 10 23 207 21 109 -1 238 -2 286 -1 l88 2 49 50 c27 28 58 50 69 50 11 0 42
-9 69 -19 66 -26 262 -61 342 -61 78 0 300 24 425 46 223 39 452 63 586 61
l137 -2 44 -46z m-7343 9 c-7 -13 -38 -61 -69 -108 -31 -47 -96 -151 -145
-232 -49 -81 -92 -144 -96 -140 -10 12 -68 312 -69 358 0 6 50 16 122 23 134
14 173 28 227 85 41 42 46 44 30 14z m1660 -35 l45 -48 171 -6 c93 -4 181 -5
195 -2 40 7 16 -7 -70 -43 -297 -121 -580 -332 -807 -600 -103 -123 -156 -195
-321 -439 -233 -345 -447 -613 -614 -770 -125 -117 -337 -276 -472 -352 -269
-154 -615 -241 -911 -230 -319 11 -563 95 -790 272 -159 123 -303 325 -380
529 -30 79 -30 122 -1 66 36 -67 112 -165 185 -238 170 -170 434 -295 686
-324 49 -5 164 -8 255 -5 135 4 181 10 255 30 269 76 551 219 738 375 91 77
282 275 372 387 51 63 265 380 325 480 212 358 426 641 620 822 l55 51 120 21
c66 11 154 31 195 45 41 13 81 24 89 25 8 1 35 -20 60 -46z m666 -175 c14 -29
25 -59 25 -67 0 -8 -87 -103 -194 -210 -107 -108 -199 -209 -205 -224 -14 -37
-14 -80 1 -112 15 -33 6 -41 -136 -117 -113 -59 -219 -140 -285 -214 -24 -27
-89 -110 -144 -184 -55 -74 -146 -196 -201 -270 -122 -163 -225 -282 -279
-321 -35 -26 -49 -29 -111 -29 -89 0 -147 -27 -244 -116 l-69 -63 -25 27 c-13
15 -36 42 -51 61 l-26 35 79 83 c125 132 236 276 447 583 384 557 421 602 688
826 76 64 251 173 363 227 63 31 269 113 340 136 2 1 14 -23 27 -51z m-2365
-165 c-98 -215 -145 -309 -222 -438 -221 -370 -411 -543 -698 -639 -302 -100
-575 -56 -739 119 -110 118 -132 269 -65 453 9 23 19 42 23 42 9 0 65 -226 81
-325 15 -96 43 -143 110 -183 91 -55 148 -67 300 -66 158 0 224 16 385 95 255
124 441 348 821 990 38 64 70 115 72 113 2 -1 -29 -73 -68 -161z m4536 -740
c204 -212 241 -238 330 -227 50 6 52 5 71 -28 194 -332 203 -342 578 -618 198
-146 264 -201 388 -324 l107 -107 0 -53 c0 -29 6 -73 14 -99 14 -47 78 -137
140 -196 20 -19 36 -38 36 -43 0 -18 -257 -193 -451 -306 l-106 -62 -132 55
c-241 100 -425 199 -666 359 -126 84 -284 183 -350 219 -119 66 -338 167 -363
167 -9 0 -11 10 -6 37 4 20 7 113 8 207 0 159 -2 177 -27 259 -15 49 -37 107
-49 130 l-21 42 50 45 c28 25 55 55 62 67 7 15 11 111 11 301 l0 280 58 21
c31 12 73 31 92 41 19 11 38 19 41 20 3 0 86 -84 185 -187z m-1364 132 l78
-27 -3 -283 -2 -283 25 -34 c22 -30 43 -50 88 -84 13 -9 11 -21 -16 -85 -50
-121 -72 -225 -72 -338 l0 -101 -44 0 c-56 0 -303 -26 -381 -40 -183 -34 -391
-98 -525 -162 -36 -17 -81 -37 -100 -45 -82 -35 -290 -185 -395 -285 -102 -97
-216 -221 -260 -282 l-20 -28 -159 114 c-88 63 -164 121 -169 129 -8 12 4 30
49 78 32 35 74 86 92 114 28 44 32 60 32 117 0 64 2 68 46 121 86 102 211 211
414 360 334 244 444 347 540 508 93 155 115 186 131 182 44 -13 90 -11 124 4
21 11 111 95 213 202 201 209 175 197 314 148z m-2780 -1212 c102 -126 206
-239 359 -389 153 -151 354 -332 379 -342 8 -3 49 -31 90 -63 42 -31 115 -82
163 -114 48 -31 87 -61 87 -67 0 -8 -83 -152 -95 -166 -10 -11 -369 250 -505
366 -95 81 -356 339 -465 457 -98 107 -225 266 -225 280 1 11 127 115 140 115
5 0 37 -35 72 -77z m-939 -459 c124 -178 414 -511 603 -693 207 -199 379 -341
664 -547 66 -48 276 -182 397 -254 l52 -31 0 -94 c0 -58 -3 -95 -10 -95 -29 0
-196 98 -414 243 -216 143 -352 247 -559 426 -54 48 -128 111 -165 142 -133
112 -472 484 -636 699 -79 102 -155 215 -147 217 21 8 140 31 160 32 16 1 32
-12 55 -45z m924 -229 c58 -38 82 -137 47 -190 -24 -36 -76 -65 -118 -65 -130
0 -191 154 -97 244 49 47 107 50 168 11z m6791 11 c48 -25 72 -60 78 -112 4
-38 1 -56 -15 -82 -29 -45 -77 -72 -130 -72 -38 0 -49 5 -87 44 -36 35 -44 50
-44 80 0 84 61 156 131 156 22 0 52 -6 67 -14z m-3793 -241 c11 -88 -1 -140
-43 -184 -35 -36 -42 -39 -147 -56 -151 -24 -263 -58 -369 -112 -213 -107
-322 -208 -434 -404 -61 -105 -85 -169 -116 -306 -45 -203 -42 -395 10 -578
31 -111 118 -288 183 -375 119 -158 312 -308 516 -402 99 -46 130 -56 295
-100 81 -22 86 -25 97 -58 7 -19 12 -70 12 -113 l1 -79 -67 7 c-502 50 -958
358 -1169 789 -137 281 -182 559 -139 852 47 314 172 561 400 789 137 138 222
198 376 267 167 74 343 115 511 117 l77 1 6 -55z m778 -141 c105 -53 345 -204
443 -279 l45 -33 -53 -12 c-92 -20 -338 -60 -368 -60 -33 0 -36 7 -45 95 -12
111 -32 163 -86 220 -34 36 -52 64 -56 89 -3 20 -3 36 1 36 3 0 57 -25 119
-56z m-907 -231 c-3 -10 -8 -40 -11 -68 -12 -99 -5 -93 -87 -83 -40 5 -110 18
-156 28 -46 11 -92 20 -103 20 -40 0 -16 17 69 48 101 37 224 71 265 71 22 1
27 -3 23 -16z m531 -825 c115 -79 60 -251 -79 -251 -128 0 -176 186 -65 253
43 27 103 26 144 -2z m2701 -717 c253 -56 483 -166 649 -312 32 -28 62 -58 67
-66 11 -19 2 -15 -76 43 -129 95 -380 201 -561 238 -205 42 -524 47 -707 11
-306 -60 -498 -140 -1045 -435 -177 -95 -482 -223 -660 -276 -115 -34 -115
-34 -115 29 0 76 10 123 30 145 11 11 50 26 101 36 162 35 388 117 624 226
188 88 534 233 644 271 143 49 280 84 391 98 47 6 96 13 110 15 14 3 122 3
240 1 170 -3 234 -8 308 -24z m-3722 -26 c104 -19 239 -42 299 -50 169 -24
151 -11 158 -117 6 -101 22 -157 61 -215 38 -55 35 -66 -16 -58 -163 28 -412
159 -561 296 -59 53 -147 157 -147 172 0 10 0 10 206 -28z"/>
<path d="M10150 11380 c-186 -14 -365 -75 -520 -177 -170 -112 -364 -342 -434
-513 -196 -479 -64 -1024 324 -1331 230 -182 449 -260 738 -262 112 0 142 3
248 31 66 17 152 44 192 60 153 63 341 214 454 366 106 142 151 237 196 416
23 93 26 124 27 275 0 155 -3 179 -28 275 -96 357 -364 659 -698 783 -190 71
-316 90 -499 77z m253 -793 c78 -36 158 -119 188 -194 18 -46 23 -79 23 -158
1 -89 -2 -106 -26 -155 -74 -151 -240 -239 -398 -211 -35 6 -83 20 -109 33
-64 31 -143 115 -183 195 -30 61 -33 76 -33 153 1 66 6 96 23 134 45 98 132
183 224 217 79 29 212 23 291 -14z"/>
</g>
</svg>
